<svg xmlns="http://www.w3.org/2000/svg" width="20" height="20" viewBox="0 0 32 32">
<!-- VEGAS Effects resource: letter-spacing@2x.png; SHA-1: 6750792b75e2b4536e3d6255530d1a205a4fc531 -->
<path fill="#CFCFCF" fill-opacity="0.0627" d="M10 10h1v1h-1zM27 12h1v1h-1zM1 16h1v1h-1zM28 19h1v1h-1zM6 20h1v1h-1zM26 20h1v1h-1zM7 23h1v1h-1zM24 30h1v1h-1z"/>
<path fill="#CFCFCF" fill-opacity="0.1255" d="M19 4h1v1h-1zM19 5h1v1h-1zM19 6h1v1h-1zM19 7h1v1h-1zM5 8h1v1h-1zM19 8h1v1h-1zM24 8h1v1h-1zM19 9h1v1h-1zM22 9h1v1h-1zM28 9h1v1h-1zM19 10h1v1h-1zM29 10h1v1h-1zM19 11h1v1h-1zM19 12h1v1h-1zM19 13h1v1h-1zM2 14h1v1h-1zM19 14h1v1h-1zM19 15h1v1h-1zM19 16h1v1h-1zM27 16h1v1h-1zM1 17h1v1h-1zM19 17h1v1h-1zM19 18h1v1h-1zM2 19h1v1h-1zM19 19h1v1h-1zM24 23h1v1h-1zM6 24h1v1h-1zM25 24h1v1h-1zM6 29h1v1h-1zM25 29h1v1h-1zM7 30h1v1h-1z"/>
<path fill="#CFCFCF" fill-opacity="0.1882" d="M21 3h1v1h-1zM26 8h1v1h-1zM3 11h1v1h-1zM4 20h1v1h-1z"/>
<path fill="#CFCFCF" fill-opacity="0.2471" d="M6 10h1v1h-1zM25 10h1v1h-1zM4 15h1v1h-1zM5 20h1v1h-1zM24 20h2v1h-2zM26 28h1v1h-1z"/>
<path fill="#CFCFCF" fill-opacity="0.2510" d="M20 3h1v1h-1zM6 8h2v1h-2zM25 8h1v1h-1zM8 12h1v1h-1zM4 13h1v1h-1zM8 15h1v1h-1zM5 18h1v1h-1zM24 18h1v1h-1zM5 25h1v1h-1zM26 25h1v1h-1zM5 28h1v1h-1z"/>
<path fill="#CFCFCF" fill-opacity="0.3098" d="M5 10h1v1h-1zM24 10h1v1h-1z"/>
<path fill="#CFCFCF" fill-opacity="0.3137" d="M9 9h1v1h-1zM8 16h1v1h-1zM22 17h1v1h-1zM6 18h1v1h-1zM25 18h1v1h-1zM8 19h1v1h-1zM22 19h1v1h-1z"/>
<path fill="#CFCFCF" fill-opacity="0.3725" d="M29 17h1v1h-1z"/>
<path fill="#CFCFCF" fill-opacity="0.3765" d="M7 10h1v1h-1z"/>
<path fill="#CFCFCF" fill-opacity="0.4353" d="M10 11h1v1h-1zM27 27h1v1h-1z"/>
<path fill="#CFCFCF" fill-opacity="0.4392" d="M27 11h1v1h-1zM4 26h1v1h-1z"/>
<path fill="#CFCFCF" fill-opacity="0.4980" d="M8 11h1v1h-1zM22 11h1v1h-1zM5 13h1v1h-1zM4 27h1v1h-1zM9 31h1v1h-1z"/>
<path fill="#CFCFCF" fill-opacity="0.5020" d="M3 9h1v1h-1zM22 22h1v1h-1zM27 26h1v1h-1z"/>
<path fill="#CFCFCF" fill-opacity="0.5608" d="M29 11h1v1h-1zM10 12h1v1h-1zM23 18h1v1h-1zM22 31h1v1h-1z"/>
<path fill="#CFCFCF" fill-opacity="0.5647" d="M9 22h1v1h-1z"/>
<path fill="#CFCFCF" fill-opacity="0.6235" d="M4 10h1v1h-1zM23 10h1v1h-1zM26 10h1v1h-1zM6 13h1v1h-1zM10 13h1v1h-1zM7 14h2v1h-2zM10 14h1v1h-1zM10 15h1v1h-1zM10 16h1v1h-1zM10 17h1v1h-1zM27 17h1v1h-1zM4 18h1v1h-1zM10 18h1v1h-1zM10 19h1v1h-1zM27 19h1v1h-1z"/>
<path fill="#CFCFCF" fill-opacity="0.6863" d="M26 18h1v1h-1zM7 19h1v1h-1z"/>
<path fill="#CFCFCF" fill-opacity="0.7490" d="M21 4h1v1h-1zM21 5h1v1h-1zM21 6h1v1h-1zM21 7h1v1h-1zM21 8h1v1h-1zM21 9h1v1h-1zM23 9h1v1h-1zM21 13h1v1h-1zM21 14h1v1h-1zM28 14h1v1h-1zM21 15h1v1h-1zM3 16h1v1h-1zM29 16h1v1h-1zM2 18h1v1h-1zM7 18h1v1h-1zM21 19h1v1h-1zM8 23h1v1h-1zM23 23h1v1h-1zM8 30h1v1h-1zM23 30h1v1h-1z"/>
<path fill="#CFCFCF" fill-opacity="0.8118" d="M7 13h1v1h-1zM28 13h1v1h-1zM6 14h1v1h-1zM2 15h1v1h-1zM28 15h1v1h-1zM21 16h1v1h-1zM3 17h1v1h-1zM8 17h1v1h-1zM28 18h1v1h-1z"/>
<path fill="#CFCFCF" fill-opacity="0.8745" d="M8 9h1v1h-1zM27 9h1v1h-1zM21 10h2v1h-2zM21 12h1v1h-1zM29 12h1v1h-1zM3 14h1v1h-1zM8 18h1v1h-1zM3 19h1v1h-1zM23 19h1v1h-1zM7 24h1v1h-1zM24 24h1v1h-1zM25 25h1v1h-1zM6 28h1v1h-1zM7 29h1v1h-1zM24 29h1v1h-1z"/>
<path fill="#CFCFCF" fill-opacity="0.9373" d="M4 9h1v1h-1zM8 10h2v1h-2zM28 10h1v1h-1zM28 12h1v1h-1zM8 13h1v1h-1zM5 14h1v1h-1zM21 18h1v1h-1zM6 25h1v1h-1zM25 28h1v1h-1z"/>
<path fill="#CFCFCF" d="M20 4h1v1h-1zM20 5h1v1h-1zM20 6h1v1h-1zM20 7h1v1h-1zM20 8h1v1h-1zM5 9h3v1h-3zM20 9h1v1h-1zM24 9h3v1h-3zM3 10h1v1h-1zM20 10h1v1h-1zM27 10h1v1h-1zM9 11h1v1h-1zM20 11h2v1h-2zM28 11h1v1h-1zM9 12h1v1h-1zM20 12h1v1h-1zM9 13h1v1h-1zM20 13h1v1h-1zM29 13h1v1h-1zM4 14h1v1h-1zM9 14h1v1h-1zM20 14h1v1h-1zM29 14h1v1h-1zM3 15h1v1h-1zM9 15h1v1h-1zM20 15h1v1h-1zM29 15h1v1h-1zM2 16h1v1h-1zM9 16h1v1h-1zM20 16h1v1h-1zM28 16h1v1h-1zM2 17h1v1h-1zM9 17h1v1h-1zM20 17h2v1h-2zM28 17h1v1h-1zM3 18h1v1h-1zM9 18h1v1h-1zM20 18h1v1h-1zM22 18h1v1h-1zM27 18h1v1h-1zM4 19h3v1h-3zM9 19h1v1h-1zM20 19h1v1h-1zM24 19h3v1h-3zM9 23h1v1h-1zM22 23h1v1h-1zM8 24h2v1h-2zM22 24h2v1h-2zM7 25h3v1h-3zM22 25h3v1h-3zM5 26h22v1h-22zM5 27h22v1h-22zM7 28h3v1h-3zM22 28h3v1h-3zM8 29h2v1h-2zM22 29h2v1h-2zM9 30h1v1h-1zM22 30h1v1h-1z"/>
</svg>
