<svg xmlns="http://www.w3.org/2000/svg" width="20" height="20" viewBox="0 0 32 32">
<!-- VEGAS Effects resource: redo@2x.png; SHA-1: 4fbb6356292ed67f3e09de9132681b758b869c4a -->
<path fill="#00AFCF" fill-opacity="0.0627" d="M26 14h1v1h-1zM20 19h1v1h-1z"/>
<path fill="#00B7CF" fill-opacity="0.1255" d="M27 13h1v1h-1zM21 18h1v1h-1zM5 22h1v1h-1zM8 25h1v1h-1z"/>
<path fill="#00B7CF" fill-opacity="0.2510" d="M15 26h1v1h-1z"/>
<path fill="#00BAD4" fill-opacity="0.1882" d="M28 12h1v1h-1zM22 17h1v1h-1zM10 26h1v1h-1z"/>
<path fill="#00BBD1" fill-opacity="0.4392" d="M6 23h1v1h-1z"/>
<path fill="#00BBD3" fill-opacity="0.2510" d="M19 4h1v1h-1zM10 9h1v1h-1zM8 10h1v1h-1zM4 16h1v1h-1zM15 21h1v1h-1z"/>
<path fill="#00BBD3" fill-opacity="0.5020" d="M24 8h1v1h-1z"/>
<path fill="#00BBD4" fill-opacity="0.4392" d="M7 11h1v1h-1zM6 12h1v1h-1z"/>
<path fill="#00BBD4" fill-opacity="0.8118" d="M26 13h1v1h-1zM20 18h1v1h-1z"/>
<path fill="#00BCD2" fill-opacity="0.3137" d="M23 7h1v1h-1zM4 17h1v1h-1zM19 19h1v1h-1z"/>
<path fill="#00BCD4" fill-opacity="0.3725" d="M10 16h1v1h-1zM23 16h1v1h-1zM15 22h1v1h-1zM15 23h1v1h-1zM15 24h1v1h-1zM15 25h1v1h-1z"/>
<path fill="#00BCD4" fill-opacity="0.6235" d="M12 9h7v1h-7zM13 14h6v1h-6zM13 21h2v1h-2zM12 26h3v1h-3z"/>
<path fill="#00BCD4" fill-opacity="0.7490" d="M9 10h1v1h-1zM12 14h1v1h-1zM12 21h1v1h-1zM9 25h1v1h-1z"/>
<path fill="#00BCD4" fill-opacity="0.8118" d="M26 10h1v1h-1z"/>
<path fill="#00BCD4" fill-opacity="0.8745" d="M27 12h1v1h-1zM19 14h1v1h-1zM10 15h1v1h-1zM21 17h1v1h-1z"/>
<path fill="#00BCD4" fill-opacity="0.9373" d="M22 7h1v1h-1zM5 15h1v1h-1zM22 16h1v1h-1zM5 20h1v1h-1zM10 20h1v1h-1zM6 22h1v1h-1z"/>
<path fill="#00BCD4" d="M20 6h1v1h-1zM20 7h2v1h-2zM20 8h4v1h-4zM20 9h5v1h-5zM10 10h16v1h-16zM8 11h19v1h-19zM7 12h20v1h-20zM7 13h19v1h-19zM6 14h6v1h-6zM20 14h5v1h-5zM6 15h4v1h-4zM20 15h4v1h-4zM5 16h5v1h-5zM20 16h2v1h-2zM5 17h5v1h-5zM20 17h1v1h-1zM5 18h5v1h-5zM5 19h5v1h-5zM6 20h4v1h-4zM6 21h6v1h-6zM7 22h8v1h-8zM7 23h8v1h-8zM8 24h7v1h-7zM10 25h5v1h-5z"/>
<path fill="#00BCD6" fill-opacity="0.4353" d="M11 26h1v1h-1z"/>
<path fill="#00BDD4" fill-opacity="0.3765" d="M4 18h1v1h-1z"/>
<path fill="#00BDD4" fill-opacity="0.5608" d="M5 21h1v1h-1z"/>
<path fill="#00BDD4" fill-opacity="0.9373" d="M6 13h1v1h-1z"/>
<path fill="#00BDD5" fill-opacity="0.4980" d="M24 15h1v1h-1zM7 24h1v1h-1z"/>
<path fill="#00BDD5" fill-opacity="0.6235" d="M19 5h1v1h-1zM19 6h1v1h-1zM19 7h1v1h-1zM19 8h1v1h-1zM5 14h1v1h-1zM25 14h1v1h-1zM19 15h1v1h-1zM19 16h1v1h-1zM19 17h1v1h-1zM19 18h1v1h-1z"/>
<path fill="#00BDD5" fill-opacity="0.8745" d="M20 5h1v1h-1zM21 6h1v1h-1zM19 9h1v1h-1zM27 11h1v1h-1z"/>
<path fill="#00BDD6" fill-opacity="0.5608" d="M25 9h1v1h-1z"/>
<path fill="#00BED6" fill-opacity="0.2471" d="M11 15h1v1h-1z"/>
<path fill="#00BFCF" fill-opacity="0.0627" d="M20 4h1v1h-1zM10 17h1v1h-1zM10 18h1v1h-1z"/>
<path fill="#00BFD4" fill-opacity="0.1882" d="M4 19h1v1h-1z"/>
<path fill="#00BFD6" fill-opacity="0.4353" d="M11 9h1v1h-1z"/>
<path fill="#00BFD7" fill-opacity="0.1255" d="M21 5h1v1h-1zM22 6h1v1h-1zM27 10h1v1h-1zM28 11h1v1h-1zM5 13h1v1h-1zM11 20h1v1h-1z"/>
<path fill="#00BFD7" fill-opacity="0.3725" d="M10 19h1v1h-1z"/>
</svg>
