<svg xmlns="http://www.w3.org/2000/svg" width="20" height="20" viewBox="0 0 32 32">
<!-- VEGAS Effects resource: frame-first@2x.png; SHA-1: 1f596a4d76dfbd08224824225dbf8e3c34cc4091 -->
<path fill="#CFCFCF" fill-opacity="0.4980" d="M12 16h1v1h-1zM13 17h1v1h-1zM14 18h1v1h-1zM15 19h1v1h-1zM16 20h1v1h-1zM17 21h1v1h-1zM18 22h1v1h-1zM19 23h1v1h-1zM20 24h1v1h-1zM21 25h1v1h-1zM22 26h1v1h-1zM23 27h1v1h-1z"/>
<path fill="#CFCFCF" fill-opacity="0.5020" d="M23 4h1v1h-1zM22 5h1v1h-1zM21 6h1v1h-1zM20 7h1v1h-1zM19 8h1v1h-1zM18 9h1v1h-1zM17 10h1v1h-1zM16 11h1v1h-1zM15 12h1v1h-1zM14 13h1v1h-1zM13 14h1v1h-1zM12 15h1v1h-1z"/>
<path fill="#CFCFCF" d="M8 4h4v1h-4zM8 5h4v1h-4zM23 5h1v1h-1zM8 6h4v1h-4zM22 6h2v1h-2zM8 7h4v1h-4zM21 7h3v1h-3zM8 8h4v1h-4zM20 8h4v1h-4zM8 9h4v1h-4zM19 9h5v1h-5zM8 10h4v1h-4zM18 10h6v1h-6zM8 11h4v1h-4zM17 11h7v1h-7zM8 12h4v1h-4zM16 12h8v1h-8zM8 13h4v1h-4zM15 13h9v1h-9zM8 14h4v1h-4zM14 14h10v1h-10zM8 15h4v1h-4zM13 15h11v1h-11zM8 16h4v1h-4zM13 16h11v1h-11zM8 17h4v1h-4zM14 17h10v1h-10zM8 18h4v1h-4zM15 18h9v1h-9zM8 19h4v1h-4zM16 19h8v1h-8zM8 20h4v1h-4zM17 20h7v1h-7zM8 21h4v1h-4zM18 21h6v1h-6zM8 22h4v1h-4zM19 22h5v1h-5zM8 23h4v1h-4zM20 23h4v1h-4zM8 24h4v1h-4zM21 24h3v1h-3zM8 25h4v1h-4zM22 25h2v1h-2zM8 26h4v1h-4zM23 26h1v1h-1zM8 27h4v1h-4z"/>
</svg>
