<svg xmlns="http://www.w3.org/2000/svg" width="20" height="20" viewBox="0 0 32 32">
<!-- VEGAS Effects resource: hand@2x.png; SHA-1: 39a298c358c4e09af8adee9d70d34dbe31f4ecdd -->
<path fill="#FFB74D" d="M14 18h1v1h-1zM21 18h1v1h-1zM14 19h1v1h-1zM21 19h1v1h-1zM14 20h1v1h-1zM21 20h1v1h-1zM14 21h1v1h-1zM21 21h1v1h-1zM14 22h1v1h-1zM21 22h1v1h-1zM14 23h1v1h-1zM21 23h1v1h-1zM14 24h1v1h-1zM21 24h1v1h-1zM14 25h1v1h-1zM21 25h1v1h-1z"/>
<path fill="#FFBE60" d="M17 18h1v1h-1zM17 19h1v1h-1zM17 20h1v1h-1zM17 21h1v1h-1zM17 22h1v1h-1zM17 23h1v1h-1zM17 24h1v1h-1zM17 25h1v1h-1z"/>
<path fill="#FFBF60" d="M18 18h1v1h-1zM18 19h1v1h-1zM18 20h1v1h-1zM18 21h1v1h-1zM18 22h1v1h-1zM18 23h1v1h-1zM18 24h1v1h-1zM18 25h1v1h-1zM14 26h1v1h-1zM21 26h1v1h-1z"/>
<path fill="#FFC46D" d="M15 18h1v1h-1zM20 18h1v1h-1zM15 19h1v1h-1zM20 19h1v1h-1zM15 20h1v1h-1zM20 20h1v1h-1zM15 21h1v1h-1zM20 21h1v1h-1zM15 22h1v1h-1zM20 22h1v1h-1zM15 23h1v1h-1zM20 23h1v1h-1zM15 24h1v1h-1zM20 24h1v1h-1zM15 25h1v1h-1zM20 25h1v1h-1zM17 26h2v1h-2z"/>
<path fill="#FFC773" d="M15 26h1v1h-1zM20 26h1v1h-1z"/>
<path fill="#FFC77F" fill-opacity="0.1255" d="M21 3h1v1h-1zM7 18h1v1h-1zM8 19h1v1h-1zM25 28h1v1h-1z"/>
<path fill="#FFCA7F" fill-opacity="0.1882" d="M12 4h1v1h-1z"/>
<path fill="#FFCB7F" fill-opacity="0.2510" d="M18 4h1v1h-1z"/>
<path fill="#FFCB7F" fill-opacity="0.4392" d="M19 3h1v1h-1z"/>
<path fill="#FFCB7F" fill-opacity="0.5020" d="M14 2h1v1h-1zM22 14h1v1h-1z"/>
<path fill="#FFCC80" fill-opacity="0.6235" d="M20 3h1v1h-1zM12 5h1v1h-1zM12 6h1v1h-1zM12 7h1v1h-1zM12 8h1v1h-1zM12 9h1v1h-1zM26 9h1v1h-1zM12 10h1v1h-1zM26 10h1v1h-1zM12 11h1v1h-1zM26 11h1v1h-1zM12 12h1v1h-1zM26 12h1v1h-1zM12 13h1v1h-1zM26 13h1v1h-1zM17 14h1v1h-1zM26 14h1v1h-1zM26 15h1v1h-1zM26 16h1v1h-1zM26 17h1v1h-1zM26 18h1v1h-1zM26 19h1v1h-1zM26 20h1v1h-1zM26 21h1v1h-1zM26 22h1v1h-1zM26 23h1v1h-1zM26 24h1v1h-1z"/>
<path fill="#FFCC80" fill-opacity="0.6863" d="M16 2h1v1h-1zM3 20h1v1h-1z"/>
<path fill="#FFCC80" fill-opacity="0.7490" d="M4 18h1v1h-1zM9 20h1v1h-1zM12 29h1v1h-1z"/>
<path fill="#FFCC80" fill-opacity="0.8118" d="M6 18h1v1h-1z"/>
<path fill="#FFCC80" fill-opacity="0.8745" d="M11 4h1v1h-1zM12 14h1v1h-1zM7 19h1v1h-1zM8 20h1v1h-1zM25 27h1v1h-1zM24 28h1v1h-1z"/>
<path fill="#FFCC80" fill-opacity="0.9373" d="M15 2h1v1h-1zM10 4h1v1h-1zM21 4h1v1h-1z"/>
<path fill="#FFCC80" d="M14 3h3v1h-3zM14 4h3v1h-3zM19 4h2v1h-2zM10 5h2v1h-2zM14 5h3v1h-3zM19 5h3v1h-3zM10 6h2v1h-2zM14 6h3v1h-3zM19 6h3v1h-3zM10 7h2v1h-2zM14 7h3v1h-3zM19 7h3v1h-3zM10 8h2v1h-2zM14 8h3v1h-3zM19 8h3v1h-3zM24 8h2v1h-2zM10 9h2v1h-2zM14 9h3v1h-3zM19 9h3v1h-3zM24 9h2v1h-2zM10 10h2v1h-2zM14 10h3v1h-3zM19 10h3v1h-3zM24 10h2v1h-2zM10 11h2v1h-2zM14 11h3v1h-3zM19 11h3v1h-3zM24 11h2v1h-2zM10 12h2v1h-2zM14 12h3v1h-3zM19 12h3v1h-3zM24 12h2v1h-2zM10 13h2v1h-2zM14 13h3v1h-3zM19 13h3v1h-3zM24 13h2v1h-2zM10 14h2v1h-2zM14 14h3v1h-3zM19 14h3v1h-3zM24 14h2v1h-2zM10 15h16v1h-16zM10 16h16v1h-16zM10 17h16v1h-16zM5 18h1v1h-1zM10 18h4v1h-4zM16 18h1v1h-1zM19 18h1v1h-1zM22 18h4v1h-4zM4 19h3v1h-3zM10 19h4v1h-4zM16 19h1v1h-1zM19 19h1v1h-1zM22 19h4v1h-4zM4 20h4v1h-4zM10 20h4v1h-4zM16 20h1v1h-1zM19 20h1v1h-1zM22 20h4v1h-4zM4 21h10v1h-10zM16 21h1v1h-1zM19 21h1v1h-1zM22 21h4v1h-4zM5 22h9v1h-9zM16 22h1v1h-1zM19 22h1v1h-1zM22 22h4v1h-4zM6 23h8v1h-8zM16 23h1v1h-1zM19 23h1v1h-1zM22 23h4v1h-4zM7 24h7v1h-7zM16 24h1v1h-1zM19 24h1v1h-1zM22 24h4v1h-4zM8 25h6v1h-6zM16 25h1v1h-1zM19 25h1v1h-1zM22 25h4v1h-4zM9 26h5v1h-5zM16 26h1v1h-1zM19 26h1v1h-1zM22 26h4v1h-4zM10 27h15v1h-15zM11 28h13v1h-13zM13 29h9v1h-9z"/>
<path fill="#FFCC81" fill-opacity="0.3725" d="M17 3h1v1h-1zM17 4h1v1h-1zM17 5h1v1h-1zM17 6h1v1h-1zM17 7h1v1h-1zM17 8h1v1h-1zM17 9h1v1h-1zM17 10h1v1h-1zM17 11h1v1h-1zM17 12h1v1h-1zM17 13h1v1h-1zM26 26h1v1h-1z"/>
<path fill="#FFCD7F" fill-opacity="0.3765" d="M18 5h1v1h-1zM18 6h1v1h-1zM18 7h1v1h-1zM18 8h1v1h-1zM18 9h1v1h-1zM18 10h1v1h-1zM18 11h1v1h-1zM18 12h1v1h-1zM18 13h1v1h-1zM13 14h1v1h-1zM3 21h1v1h-1zM11 29h1v1h-1z"/>
<path fill="#FFCD80" fill-opacity="0.4980" d="M4 22h1v1h-1zM5 23h1v1h-1zM6 24h1v1h-1zM7 25h1v1h-1zM8 26h1v1h-1zM9 27h1v1h-1zM10 28h1v1h-1zM23 29h1v1h-1z"/>
<path fill="#FFCD80" fill-opacity="0.5608" d="M24 7h2v1h-2zM23 8h1v1h-1zM26 8h1v1h-1zM3 19h1v1h-1zM26 25h1v1h-1z"/>
<path fill="#FFCD80" fill-opacity="0.6235" d="M9 5h1v1h-1zM9 6h1v1h-1zM9 7h1v1h-1zM9 8h1v1h-1zM9 9h1v1h-1zM23 9h1v1h-1zM9 10h1v1h-1zM23 10h1v1h-1zM9 11h1v1h-1zM23 11h1v1h-1zM9 12h1v1h-1zM23 12h1v1h-1zM9 13h1v1h-1zM23 13h1v1h-1zM9 14h1v1h-1zM18 14h1v1h-1zM9 15h1v1h-1zM9 16h1v1h-1zM9 17h1v1h-1zM9 18h1v1h-1zM9 19h1v1h-1z"/>
<path fill="#FFCD80" fill-opacity="0.8745" d="M23 14h1v1h-1zM22 29h1v1h-1z"/>
<path fill="#FFCF7F" fill-opacity="0.0627" d="M17 2h1v1h-1zM23 7h1v1h-1zM26 7h1v1h-1zM3 18h1v1h-1zM24 29h1v1h-1z"/>
<path fill="#FFCF7F" fill-opacity="0.1255" d="M9 4h1v1h-1z"/>
</svg>
